
<svg xmlns="http://www.w3.org/2000/svg" xmlns:xlink="http://www.w3.org/1999/xlink" width="14px" height="12px" viewBox="0 0 14 12" version="1.1">
<g id="surface1">
<path fill="#526278" d="M 13.742188 6.53125 L 10.242188 9.53125 C 9.902344 9.824219 9.347656 9.824219 9.003906 9.53125 C 8.664062 9.238281 8.664062 8.761719 9.003906 8.46875 L 11.015625 6.75 L 0.875 6.75 C 0.390625 6.75 0 6.414062 0 5.980469 C 0 5.542969 0.390625 5.25 0.875 5.25 L 11.015625 5.25 L 9.007812 3.53125 C 8.664062 3.238281 8.664062 2.761719 9.007812 2.46875 C 9.347656 2.175781 9.902344 2.175781 10.246094 2.46875 L 13.746094 5.46875 C 14.085938 5.761719 14.085938 6.238281 13.742188 6.53125 Z M 13.742188 6.53125 "/>
</g>
</svg>
