<?xml version="1.0" encoding="UTF-8"?>
<svg xmlns="http://www.w3.org/2000/svg" xmlns:xlink="http://www.w3.org/1999/xlink" width="12px" height="14px" viewBox="0 0 12 13" version="1.1">
<g id="surface1">
<path fill="#fff" d="M 4.070312 1.625 L 7.929688 1.625 L 7.929688 0.609375 C 7.929688 0.273438 8.214844 0 8.570312 0 C 8.925781 0 9.214844 0.273438 9.214844 0.609375 L 9.214844 1.625 L 10.285156 1.625 C 11.230469 1.625 12 2.351562 12 3.25 L 12 11.375 C 12 12.269531 11.230469 13 10.285156 13 L 1.714844 13 C 0.765625 13 0 12.269531 0 11.375 L 0 3.25 C 0 2.351562 0.765625 1.625 1.714844 1.625 L 2.785156 1.625 L 2.785156 0.609375 C 2.785156 0.273438 3.074219 0 3.429688 0 C 3.785156 0 4.070312 0.273438 4.070312 0.609375 Z M 1.285156 6.296875 L 3.429688 6.296875 L 3.429688 4.875 L 1.285156 4.875 Z M 1.285156 7.515625 L 1.285156 9.140625 L 3.429688 9.140625 L 3.429688 7.515625 Z M 4.714844 7.515625 L 4.714844 9.140625 L 7.285156 9.140625 L 7.285156 7.515625 Z M 8.570312 7.515625 L 8.570312 9.140625 L 10.714844 9.140625 L 10.714844 7.515625 Z M 10.714844 4.875 L 8.570312 4.875 L 8.570312 6.296875 L 10.714844 6.296875 Z M 10.714844 10.359375 L 8.570312 10.359375 L 8.570312 11.78125 L 10.285156 11.78125 C 10.519531 11.78125 10.714844 11.597656 10.714844 11.375 Z M 7.285156 10.359375 L 4.714844 10.359375 L 4.714844 11.78125 L 7.285156 11.78125 Z M 3.429688 10.359375 L 1.285156 10.359375 L 1.285156 11.375 C 1.285156 11.597656 1.476562 11.78125 1.714844 11.78125 L 3.429688 11.78125 Z M 7.285156 4.875 L 4.714844 4.875 L 4.714844 6.296875 L 7.285156 6.296875 Z M 7.285156 4.875 "/>
</g>
</svg>
