<svg xmlns="http://www.w3.org/2000/svg"
 xmlns:xlink="http://www.w3.org/1999/xlink"
 width="9px" height="13px"  viewBox="0 0 9 13">
<path fill-rule="evenodd"  fill="#243f4d"
 d="M2.472046,11.5383 C2.5906982,11.5383 2.7094727,11.492462 2.8026733,11.398346 C2.8026733,11.398346 7.024292,7.133423 7.024292,7.133423 C7.028137,7.128418 7.0324097,7.1239624 7.036621,7.120056 C7.0769043,7.076538 7.1086426,7.028412 7.131714,6.97583 C7.131714,6.97583 7.131958,6.977417 7.131958,6.9749146 C7.1620483,6.9066467 7.177063,6.832489 7.177063,6.758148 C7.177063,6.757416 7.177063,6.756714 7.177063,6.7556458 C7.176697,6.684143 7.1620483,6.611603 7.1332397,6.5445557 C7.1332397,6.5438538 7.1332397,6.5438538 7.1328735,6.5438538 C7.1328735,6.5438538 7.1328735,6.5438538 7.1328735,6.543152 C7.109436,6.4898376 7.0769043,6.4395447 7.0354614,6.395508 C7.0320435,6.3914185 7.028137,6.387146 7.024292,6.3839417 C7.024292,6.3839417 2.8026733,2.1186523 2.8026733,2.1186523 C2.6087646,1.9244995 2.3062134,1.9327087 2.123352,2.1382446 C2.0349731,2.2375488 1.9920654,2.3641357 1.9920654,2.4903564 C1.9920654,2.6261902 2.0421143,2.7618713 2.1412964,2.8620605 C2.1412964,2.8620605 5.998169,6.758148 5.998169,6.758148 C5.998169,6.758148 2.1412964,10.654572 2.1412964,10.654572 C2.0421143,10.755463 1.9920654,10.890442 1.9920654,11.026459 C1.9920654,11.153046 2.0349731,11.279785 2.123352,11.379089 C2.2179565,11.484985 2.3445435,11.5383 2.472046,11.5383 Z"/>
</svg>