<svg xmlns="http://www.w3.org/2000/svg"
 xmlns:xlink="http://www.w3.org/1999/xlink"
 width="26px" height="12px"  viewBox="0 0 26 12">
<path fill-rule="evenodd"  fill="#a3bbc8"
 d="M2.2960205,7.4731445 C2.2960205,7.4731445 2.2879028,7.4709473 2.2879028,7.4709473 C2.2879028,7.4709473 19.24414,7.4709473 19.24414,7.4709473 C19.24414,7.4709473 19.143677,10.329346 19.143677,10.329346 C19.089417,10.383545 19.059692,10.458008 19.059692,10.53418 C19.059692,10.611572 19.089417,10.684326 19.143677,10.73877 C19.143677,10.73877 19.316223,10.9123535 19.316223,10.9123535 C19.370483,10.966553 19.442688,10.996338 19.519836,10.996338 C19.596985,10.996338 19.669312,10.966553 19.72351,10.912842 C19.72351,10.912842 23.915833,6.701172 23.915833,6.701172 C23.970337,6.6469727 24.000061,6.573242 23.999939,6.496582 C24.000061,6.4191895 23.970337,6.3464355 23.915833,6.2929688 C23.915833,6.2929688 19.72351,2.0795898 19.72351,2.0795898 C19.669312,2.026123 19.596985,1.9968262 19.519836,1.9968262 C19.442688,1.9968262 19.370483,2.026123 19.316223,2.0795898 C19.316223,2.0795898 19.143677,2.2539062 19.143677,2.2539062 C19.089417,2.307373 19.059692,2.380371 19.059692,2.4575195 C19.059692,2.534668 19.089417,2.6037598 19.143677,2.6569824 C19.143677,2.6569824 19.256714,5.5219727 19.256714,5.5219727 C19.256714,5.5219727 2.2921143,5.5219727 2.2921143,5.5219727 C2.1333008,5.5219727 1.9998169,5.6591797 1.9998169,5.818115 C1.9998169,5.818115 1.9998169,7.187744 1.9998169,7.187744 C1.9998169,7.3466797 2.137146,7.4731445 2.2960205,7.4731445 Z"/>
</svg>